<?xml version="1.0" encoding="UTF-8"?>
<!-- Generator: visioncortex VTracer 0.6.4 -->
<svg version="1.1" xmlns="http://www.w3.org/2000/svg" width="960" height="540">
<path d="M0 0 C0.71 0.03 1.42 0.06 2.16 0.1 C22.95 1.12 42.91 6.71 61 17 C61.94 17.51 62.89 18.02 63.86 18.55 C67.01 20.25 70.02 22.01 73 24 C73 24.66 73 25.32 73 26 C73.73 26.24 74.45 26.49 75.2 26.74 C80.29 29.03 83.99 33.19 88 37 C89.08 38.02 89.08 38.02 90.18 39.05 C97.12 45.78 102.63 52.7 106.75 61.46 C108.04 64.09 109.51 66.52 111.06 69 C115.31 76 118.04 82.99 119.44 91.05 C119.86 93.24 120.36 95.41 120.9 97.58 C123.36 107.36 124.6 117.02 125.5 127.06 C126.49 138.02 127.81 148.46 131 159 C131.26 159.91 131.52 160.81 131.79 161.75 C133.81 167.67 137.31 172.37 141.01 177.34 C145.74 183.81 149.34 190.74 152.93 197.89 C153.95 199.91 155.02 201.91 156.09 203.9 C161.33 213.74 164.91 223.88 168.22 234.5 C168.94 236.8 169.68 239.08 170.44 241.37 C173.33 250.14 175.46 258.89 177 268 C177.13 268.76 177.27 269.52 177.4 270.3 C180.2 290.03 178.07 308.66 166.59 325.13 C166.06 325.75 165.54 326.36 165 327 C164.34 327 163.68 327 163 327 C162.67 327.99 162.34 328.98 162 330 C158.14 332.41 154.5 332.23 150.15 331.59 C146.61 330.62 145.12 328.94 143 326 C140.17 320.64 139.68 316 140 310 C138.82 309.66 138.82 309.66 137.62 309.31 C135 308 135 308 133.86 305.8 C132.62 301.76 132.7 297.85 132.64 293.64 C131.75 288.57 129.46 284.48 127 280 C126.8 281.07 126.8 281.07 126.59 282.15 C125.96 285.42 125.32 288.68 124.69 291.94 C124.47 293.05 124.26 294.17 124.04 295.32 C122.92 301.02 121.65 306.49 119.69 311.96 C119.01 313.98 118.53 315.98 118.08 318.07 C117.02 322.47 114.99 326.07 112.69 329.94 C112.28 330.64 111.88 331.35 111.46 332.07 C109.84 334.88 108.19 337.68 106.54 340.47 C94.84 360.79 86.22 386.64 91.5 410.06 C93.6 419.4 93.91 425.08 89.78 433.84 C84.95 439.72 76.6 439.92 69.52 440.65 C51.7 442.17 33.11 441.18 16.69 433.44 C11.06 428.34 8.38 421.12 7.83 413.64 C7.8 412.83 7.78 412.02 7.75 411.19 C7.71 409.83 7.71 409.83 7.66 408.45 C7.61 407.02 7.61 407.02 7.56 405.56 C7.11 391.08 7.11 391.08 4 377 C0.06 376.91 -3.87 376.86 -7.81 376.81 C-8.93 376.79 -10.05 376.76 -11.21 376.74 C-12.28 376.73 -13.35 376.72 -14.46 376.71 C-15.45 376.69 -16.44 376.68 -17.46 376.66 C-20.03 376.79 -20.03 376.79 -21.8 378.34 C-23.65 380.9 -23.75 383.32 -24.12 386.44 C-24.21 387.09 -24.29 387.73 -24.37 388.4 C-25.01 393.99 -25.22 399.57 -25.44 405.19 C-25.74 412.76 -26.45 419.79 -29 427 C-29.22 427.68 -29.44 428.36 -29.66 429.07 C-31.92 434.35 -36.48 436.28 -41.44 438.74 C-51.15 442.18 -60.85 442.31 -71.06 442.25 C-72.36 442.26 -73.66 442.27 -74.99 442.27 C-85.66 442.25 -96.32 441.9 -105 435 C-108.99 428.64 -109.41 421.11 -108.54 413.79 C-105.85 391.32 -109.01 367.38 -120.54 347.67 C-122 345 -122 345 -123.44 341.57 C-125.48 336.9 -128.19 332.83 -130.96 328.57 C-135.72 320.66 -137.9 312.1 -139.69 303.12 C-139.9 302.13 -140.11 301.13 -140.33 300.1 C-141.76 293.08 -142.55 286.14 -143 279 C-144.03 278.81 -145.06 278.63 -146.12 278.44 C-156.58 275.78 -166.21 270.42 -173 262 C-173.96 260.82 -173.96 260.82 -174.93 259.62 C-183.14 248.74 -184.89 236.39 -183.62 223.03 C-181.7 209.42 -176.22 198.95 -168 188 C-167.4 186.91 -166.81 185.82 -166.19 184.69 C-164.13 181.03 -161.51 178.03 -158.69 174.94 C-148.44 163.13 -144.78 151.17 -143 136 C-142.88 134.98 -142.75 133.95 -142.63 132.9 C-141.84 126.34 -141.84 126.34 -141.09 119.77 C-140.49 114.39 -139.69 109.19 -138.44 103.93 C-137.87 101.43 -137.57 98.92 -137.25 96.38 C-135.41 85.14 -130.42 75.19 -124.51 65.57 C-122.86 62.91 -122.86 62.91 -121.62 59.44 C-119.01 53.91 -114.99 49.59 -111 45 C-110.55 44.48 -110.1 43.96 -109.64 43.43 C-103.81 36.74 -103.81 36.74 -101 34 C-100.34 34 -99.68 34 -99 34 C-98.67 33.01 -98.34 32.02 -98 31 C-86.91 21.45 -73.65 14.12 -60 9 C-58.98 8.61 -58.98 8.61 -57.95 8.21 C-39.69 1.33 -19.46 -1.12 0 0 Z " fill="#D8A978" transform="translate(482,39)"/>
<path d="M0 0 C0.66 0 1.32 0 2 0 C2 0.66 2 1.32 2 2 C2.66 2 3.32 2 4 2 C3.99 2.77 3.98 3.54 3.96 4.34 C3.96 5.34 3.95 6.34 3.94 7.38 C3.93 8.37 3.91 9.37 3.9 10.4 C3.82 12.98 3.82 12.98 5 15 C5.66 14.67 6.32 14.34 7 14 C6.48 16.76 5.89 19.33 5 22 C5.28 24.34 5.61 26.68 6 29 C6.66 29 7.32 29 8 29 C8 29.66 8 30.32 8 31 C7.34 31 6.68 31 6 31 C6.29 31.72 6.58 32.44 6.88 33.19 C7.43 34.58 7.43 34.58 8 36 C8.39 36.78 8.78 37.57 9.19 38.38 C10.26 41.84 9.69 44.49 9 48 C9.99 48.33 10.98 48.66 12 49 C11.34 49 10.68 49 10 49 C11.28 51.56 11.28 51.56 13 54 C13.99 54 14.98 54 16 54 C16 55.65 16 57.3 16 59 C16.66 59 17.32 59 18 59 C18.33 59.99 18.66 60.98 19 62 C20.49 62.5 20.49 62.5 22 63 C22.33 62.01 22.66 61.02 23 60 C25.08 63.42 25.08 63.42 24.75 65.81 C24.5 66.53 24.25 67.26 24 68 C22.25 73.14 21.83 76.67 23 82 C23.5 82.5 23.5 82.5 24 83 C24.04 85 24.04 87 24 89 C27.54 85.57 27.54 85.57 30.56 81.69 C31.04 81.13 31.51 80.57 32 80 C33.32 80 34.64 80 36 80 C36.14 80.95 36.29 81.9 36.44 82.88 C36.83 85.89 36.83 85.89 38 88 C37 91.53 35.74 94.77 34 98 C33.01 97.5 33.01 97.5 32 97 C31.62 97.51 31.25 98.01 30.86 98.53 C26.63 103.9 26.63 103.9 23.12 104.44 C22.42 104.29 21.72 104.15 21 104 C21 103.34 21 102.68 21 102 C20.34 102 19.68 102 19 102 C17.67 98.02 17.93 94.15 18 90 C17.22 89.77 16.43 89.55 15.62 89.31 C13 88 13 88 11.86 85.81 C10.9 82.68 10.73 79.96 10.62 76.69 C10.31 71.72 9.61 68.27 7.1 64.01 C3.34 57.12 2.56 50.29 2.44 42.56 C2.23 35.46 1.82 28.48 0.94 21.44 C0.04 14.24 -0.23 7.26 0 0 Z " fill="#E39C5C" transform="translate(604,259)"/>
<path d="M0 0 C0.66 0 1.32 0 2 0 C2.33 0.99 2.66 1.98 3 3 C3.66 3.66 4.32 4.32 5 5 C4.01 5.99 3.02 6.98 2 8 C2.33 8.66 2.66 9.32 3 10 C3.99 9.34 4.98 8.68 6 8 C6.25 9.36 6.25 9.36 6.5 10.75 C8.38 14.82 10.01 15.27 13.96 17 C17.47 18.72 20.3 21.18 21.72 24.86 C22.07 27.55 21.49 29.22 20.56 31.75 C20.28 32.55 19.99 33.35 19.69 34.17 C19.46 34.78 19.24 35.38 19 36 C19.72 36.29 20.44 36.58 21.19 36.88 C23.79 37.92 26.4 38.96 29 40 C29 40.66 29 41.32 29 42 C30.32 41.34 31.64 40.68 33 40 C33.08 40.74 33.17 41.49 33.25 42.25 C33.78 45.1 33.78 45.1 35.94 46.94 C38.49 49.49 39.1 51.52 40 55 C40.29 55.97 40.58 56.94 40.88 57.94 C41.05 62.32 39.39 64.38 37 68 C36 66 36 66 36.44 64.38 C37.58 59.55 37.51 55.43 35.88 50.81 C30.94 43.42 24.06 41.07 16 38 C16 37.34 16 36.68 16 36 C10.72 36 5.44 36 0 36 C-0.33 36.99 -0.66 37.98 -1 39 C-1.33 37.68 -1.66 36.36 -2 35 C-1.2 34.73 -0.39 34.46 0.44 34.19 C1.71 33.6 1.71 33.6 3 33 C4.39 28.82 2.82 26.87 1 23 C0.01 23.33 -0.98 23.66 -2 24 C-2.99 24 -3.98 24 -5 24 C-7 24.31 -9 24.65 -11 25 C-8.78 21.67 -7.65 21.25 -4 20 C-4.68 19.48 -5.36 18.97 -6.06 18.44 C-8 16 -8 16 -7.94 12.5 C-7.06 9.22 -6.27 7.47 -4 5 C-3.67 6.32 -3.34 7.64 -3 9 C-2.67 8.01 -2.34 7.02 -2 6 C-1.34 6 -0.68 6 0 6 C-0.28 4.79 -0.28 4.79 -0.56 3.56 C-0.71 2.72 -0.85 1.87 -1 1 C-0.67 0.67 -0.34 0.34 0 0 Z " fill="#D7955A" transform="translate(349,236)"/>
<path d="M0 0 C3.54 2.2 5.42 4.18 7 8 C7.79 13.63 7.2 18.2 4 23 C1.51 25.87 -0.77 26.29 -4.44 26.56 C-7.1 26.48 -8.52 26.36 -10.66 24.76 C-14.32 20.47 -15.36 16.63 -15.29 11.06 C-14.7 6.82 -12.06 4.1 -9.19 1.12 C-5.93 -0.55 -3.6 -0.44 0 0 Z " fill="#291509" transform="translate(443,126)"/>
<path d="M0 0 C4.01 0.8 5.64 1.73 8.44 4.69 C11.38 9.15 12.38 13.41 11.44 18.69 C10.09 21.97 8.73 25.04 5.44 26.69 C-1.58 27.26 -1.58 27.26 -5.44 25 C-9.54 20.53 -10.14 16.14 -10 10.2 C-9.37 6.58 -7.92 4.48 -5.34 1.91 C-3.56 0.69 -3.56 0.69 0 0 Z " fill="#412513" transform="translate(529.5625,125.3125)"/>
<path d="M0 0 C0.66 0 1.32 0 2 0 C2 0.66 2 1.32 2 2 C2.66 2 3.32 2 4 2 C3.99 2.77 3.98 3.54 3.96 4.34 C3.96 5.34 3.95 6.34 3.94 7.38 C3.93 8.37 3.91 9.37 3.9 10.4 C3.82 12.98 3.82 12.98 5 15 C5.66 14.67 6.32 14.34 7 14 C6.48 16.76 5.89 19.33 5 22 C5.28 24.34 5.61 26.68 6 29 C6.66 29 7.32 29 8 29 C8 29.66 8 30.32 8 31 C7.34 31 6.68 31 6 31 C6.29 31.72 6.58 32.44 6.88 33.19 C7.43 34.58 7.43 34.58 8 36 C8.39 36.78 8.78 37.57 9.19 38.38 C10.26 41.84 9.69 44.49 9 48 C9.99 48.33 10.98 48.66 12 49 C11.34 49 10.68 49 10 49 C10.54 49.62 10.54 49.62 11.09 50.26 C15.45 56.04 15.41 60.92 15.08 68.02 C14.77 70.93 14.77 70.93 16 73 C15.66 75.38 15.66 75.38 15.06 78.12 C14.87 79.04 14.67 79.95 14.47 80.88 C14.32 81.58 14.16 82.28 14 83 C13.34 82.67 12.68 82.34 12 82 C11.76 80.07 11.76 80.07 11.69 77.56 C11.29 72.55 9.83 69.05 7.35 64.71 C3.7 57.38 2.57 50.71 2.44 42.56 C2.23 35.46 1.82 28.48 0.94 21.44 C0.04 14.24 -0.23 7.26 0 0 Z " fill="#DB782E" transform="translate(604,259)"/>
<path d="M0 0 C1.12 1.75 1.12 1.75 2 4 C1.12 6.25 1.12 6.25 0 8 C0.66 8 1.32 8 2 8 C1.99 8.92 1.98 9.83 1.96 10.77 C1.96 11.96 1.95 13.15 1.94 14.38 C1.93 15.56 1.91 16.74 1.9 17.96 C1.79 20.92 1.79 20.92 3 23 C2.79 25.32 2.42 27.6 2.06 29.91 C2.03 30.94 2.03 30.94 2 32 C2.66 32.66 3.32 33.32 4 34 C3.71 35.34 3.37 36.68 3 38 C3.96 40.33 3.96 40.33 7 42 C6.34 42 5.68 42 5 42 C6.97 44.3 6.97 44.3 10.44 44.94 C14 46 14 46 15.48 47.5 C17.27 49.27 18.43 49.6 20.87 50.13 C21.61 50.3 22.35 50.47 23.11 50.64 C23.88 50.8 24.65 50.96 25.44 51.12 C26.2 51.29 26.97 51.46 27.75 51.64 C29.18 51.95 30.6 52.26 32.03 52.57 C37.85 53.85 37.85 53.85 39 55 C41.82 55.13 44.61 55.19 47.44 55.19 C48.28 55.19 49.12 55.19 49.99 55.19 C58.74 55.12 67.33 54.16 76 53 C75 55 75 55 73.29 55.6 C51.95 60.06 27.72 59.89 7.69 50.44 C2.65 45.87 0.06 39.65 -1 33 C-1.09 30.52 -1.13 28.03 -1.13 25.55 C-1.13 24.85 -1.13 24.15 -1.14 23.42 C-1.14 21.95 -1.13 20.48 -1.13 19.01 C-1.12 16.74 -1.13 14.48 -1.14 12.22 C-1.14 10.79 -1.13 9.35 -1.13 7.92 C-1.13 6.62 -1.13 5.31 -1.13 3.97 C-1 1 -1 1 0 0 Z " fill="#B37042" transform="translate(491,422)"/>
<path d="M0 0 C0.66 0 1.32 0 2 0 C2.33 0.99 2.66 1.98 3 3 C3.66 3.66 4.32 4.32 5 5 C4.01 5.99 3.02 6.98 2 8 C2.33 8.66 2.66 9.32 3 10 C3.99 9.34 4.98 8.68 6 8 C6.17 8.91 6.33 9.81 6.5 10.75 C8.38 14.82 10.01 15.27 13.96 17 C17.47 18.72 20.3 21.18 21.72 24.86 C22.07 27.55 21.49 29.22 20.56 31.75 C20.28 32.55 19.99 33.35 19.69 34.17 C19.46 34.78 19.24 35.38 19 36 C19.72 36.29 20.44 36.58 21.19 36.88 C23.79 37.92 26.4 38.96 29 40 C29 40.66 29 41.32 29 42 C30.32 41.34 31.64 40.68 33 40 C33.08 40.74 33.17 41.49 33.25 42.25 C33.78 45.1 33.78 45.1 35.94 46.94 C38.49 49.49 39.1 51.52 40 55 C40.29 55.97 40.58 56.94 40.88 57.94 C41.05 62.32 39.39 64.38 37 68 C36 66 36 66 36.44 64.38 C37.58 59.55 37.51 55.43 35.88 50.81 C31.08 43.61 24.99 41.54 17 39 C16.88 33.25 16.88 33.25 18 31 C18.65 25.35 18.65 25.35 16.19 20.5 C11.16 18.13 5.22 18.04 -0.14 19.64 C-2 20 -2 20 -5.25 18.06 C-6.16 17.38 -7.06 16.7 -8 16 C-7.56 11.44 -7.15 8.42 -4 5 C-3.67 6.32 -3.34 7.64 -3 9 C-2.67 8.01 -2.34 7.02 -2 6 C-1.34 6 -0.68 6 0 6 C-0.28 4.79 -0.28 4.79 -0.56 3.56 C-0.71 2.72 -0.85 1.87 -1 1 C-0.67 0.67 -0.34 0.34 0 0 Z " fill="#A15B2C" transform="translate(349,236)"/>
<path d="M0 0 C1.32 0 2.64 0 4 0 C4.14 0.95 4.29 1.9 4.44 2.88 C4.83 5.89 4.83 5.89 6 8 C5 11.53 3.74 14.77 2 18 C1.34 17.67 0.68 17.34 0 17 C-0.38 17.51 -0.75 18.01 -1.14 18.53 C-5.37 23.9 -5.37 23.9 -8.88 24.44 C-9.58 24.29 -10.28 24.15 -11 24 C-12.32 21.36 -12.1 19.32 -12.06 16.38 C-12.05 15.37 -12.04 14.37 -12.04 13.34 C-12.02 12.57 -12.01 11.79 -12 11 C-11.13 10.67 -10.27 10.34 -9.38 10 C-5.51 7.71 -3.87 5.37 -1.49 1.64 C-1 1.1 -0.51 0.56 0 0 Z " fill="#DB823E" transform="translate(636,339)"/>
<path d="M0 0 C5.7 1.81 5.7 1.81 7.69 3.05 C11.14 4.47 14.58 4.34 18.25 4.31 C19.39 4.31 19.39 4.31 20.56 4.31 C26.01 4.22 30.04 3.33 35 1 C36.32 1 37.64 1 39 1 C38.82 3.32 38.82 3.32 38 6 C30.37 11.41 21.03 12.16 12 11 C7.03 9.67 2.32 8.12 -1 4 C-0.69 1.81 -0.69 1.81 0 0 Z " fill="#563420" transform="translate(466,159)"/>
<path d="M0 0 C2 4 4 8 6 12 C6.99 11.67 7.98 11.34 9 11 C9.99 11.61 10.99 12.23 12.01 12.86 C16.71 15.74 21.47 15.86 26.88 16.19 C28.77 16.32 30.66 16.46 32.55 16.61 C33.38 16.66 34.21 16.71 35.07 16.77 C37 17 37 17 38 18 C40.86 18.24 43.7 18.42 46.56 18.56 C47.37 18.61 48.18 18.65 49.01 18.69 C51 18.8 53 18.9 55 19 C51.41 21.39 49.76 21.26 45.5 21.27 C44.2 21.27 42.9 21.27 41.56 21.27 C40.88 21.27 40.2 21.27 39.51 21.26 C37.47 21.25 35.43 21.26 33.4 21.27 C22.63 21.25 11.77 21.01 3 14 C0.11 9.27 -0.34 5.49 0 0 Z " fill="#623A20" transform="translate(374,460)"/>
<path d="M0 0 C0.99 0.66 1.98 1.32 3 2 C3 2.66 3 3.32 3 4 C4.32 4.33 5.64 4.66 7 5 C7 6.65 7 8.3 7 10 C4.11 8.82 2.79 7.77 0.69 5.38 C-1.86 2.72 -1.86 2.72 -5.5 2.31 C-9.19 3.04 -10.91 3.94 -13.12 7.02 C-15.4 12.14 -14.6 17.41 -12.69 22.5 C-11.08 25.22 -11.08 25.22 -8 27 C-4.49 27.54 -1.13 27.75 1.88 25.75 C2.25 25.17 2.62 24.59 3 24 C3.37 23.44 3.74 22.89 4.12 22.31 C5.41 18.92 5.64 15.61 6 12 C6.99 11.67 7.98 11.34 9 11 C9.59 17.42 9.32 22.15 5.48 27.5 C4 29 4 29 1.12 30 C0.09 30 -0.94 30 -2 30 C-3.28 30.02 -4.56 30.04 -5.88 30.06 C-7.42 30.03 -7.42 30.03 -9 30 C-9 29.34 -9 28.68 -9 28 C-9.76 27.77 -10.53 27.55 -11.31 27.31 C-14.67 25.67 -15.37 24.34 -17 21 C-17.95 15.65 -18.1 10.37 -15.78 5.38 C-11.49 -0.29 -6.88 -1.47 0 0 Z " fill="#E3C89F" transform="translate(535,124)"/>
<path d="M0 0 C0.99 0.66 1.98 1.32 3 2 C0.81 11.86 -4.59 19.83 -10.97 27.51 C-15.17 32.66 -19.07 38.02 -22 44 C-22.66 44.99 -23.32 45.98 -24 47 C-24.66 47 -25.32 47 -26 47 C-26.33 47.66 -26.66 48.32 -27 49 C-28 46 -28 46 -27.32 44.12 C-23.07 36.57 -17.57 30.17 -11.95 23.6 C-9.69 20.59 -8.09 17.51 -6.44 14.12 C-5.86 12.95 -5.28 11.78 -4.68 10.57 C-3.04 7.08 -1.5 3.56 0 0 Z " fill="#BCA17C" transform="translate(339,186)"/>
<path d="M0 0 C4.61 -0.46 8.66 -0.8 12.56 2 C14.97 4.97 15.4 5.56 15.56 9.12 C15 13 15 13 13.5 15 C13 15.33 12.51 15.66 12 16 C12 15.34 12 14.68 12 14 C11.1 14.34 11.1 14.34 10.19 14.69 C8 15 8 15 6.31 13.81 C5 12 5 12 4.5 9.94 C4.13 7.6 4.13 7.6 1 6 C0.31 2.88 0.31 2.88 0 0 Z " fill="#EAC494" transform="translate(353,254)"/>
<path d="M0 0 C13.68 20.53 15.4 53.91 11.63 77.59 C11 80 11 80 9 82 C9 78.04 9 74.08 9 70 C9.66 70 10.32 70 11 70 C10.71 59 10.24 48.08 8.62 37.19 C8.51 36.4 8.4 35.6 8.28 34.79 C7.41 29.31 5.9 24.21 4 19 C3.34 19 2.68 19 2 19 C2.03 18.13 2.03 18.13 2.07 17.24 C2.18 12.34 1.73 8.65 0 4 C0 2.68 0 1.36 0 0 Z " fill="#DBD0B6" transform="translate(647,267)"/>
<path d="M0 0 C0.99 0.5 0.99 0.5 2 1 C2.36 3.33 2.69 5.66 3 8 C3.37 8.82 3.74 9.65 4.12 10.5 C5.32 13.9 4.68 16.51 4 20 C4.66 20 5.32 20 6 20 C5.96 20.68 5.92 21.36 5.88 22.06 C5.87 25.09 5.87 25.09 7.06 28.19 C8.48 33.93 7.87 39.4 6 45 C5.5 47.83 5.05 50.67 4.6 53.5 C4 56 4 56 2 58 C2.07 57.23 2.14 56.47 2.22 55.68 C3.49 40.44 4.09 25.42 0.66 10.45 C-0.02 6.88 -0.11 3.62 0 0 Z " fill="#B38355" transform="translate(371,404)"/>
<path d="M0 0 C2.13 3.19 2.27 4.17 2.38 7.86 C2.41 8.81 2.45 9.76 2.48 10.74 C2.51 11.73 2.54 12.73 2.56 13.75 C2.62 15.7 2.69 17.66 2.75 19.61 C2.8 21.02 2.8 21.02 2.85 22.45 C2.96 25.18 2.96 25.18 3.65 28.52 C4.16 33.54 3.1 38.03 2.06 42.94 C1.87 43.91 1.67 44.88 1.47 45.88 C0.99 48.25 0.5 50.63 0 53 C-1.93 49.46 -2.12 47.47 -1.62 43.44 C-1.29 40.58 -1 37.88 -1 35 C-1 29.33 -1 23.67 -1 18 C-1.01 16.74 -1.02 15.48 -1.04 14.18 C-1.04 12.74 -1.05 11.31 -1.06 9.88 C-1.07 9.15 -1.08 8.42 -1.09 7.67 C-1.11 2.23 -1.11 2.23 0 0 Z " fill="#DDC395" transform="translate(605,287)"/>
<path d="M0 0 C0.66 0.33 1.32 0.66 2 1 C2 1.66 2 2.32 2 3 C2.99 2.67 3.98 2.34 5 2 C5.43 2.76 5.87 3.53 6.31 4.31 C7.76 6.96 7.76 6.96 9.58 8.24 C11.79 10.98 11.4 13.43 11.38 16.88 C11.38 18.09 11.39 19.3 11.4 20.55 C10.84 25.39 8.8 28.66 5.25 31.94 C2 34 2 34 -1.88 33.31 C-2.91 32.88 -3.94 32.45 -5 32 C-5 31.67 -5 31.34 -5 31 C-4.39 30.9 -3.77 30.8 -3.14 30.7 C1.9 29.87 1.9 29.87 6 27.06 C8.26 22.4 8.65 18.1 8 13 C5.78 8.73 5.78 8.73 2 6 C0.63 5.93 -0.75 5.92 -2.12 5.94 C-4.04 5.97 -4.04 5.97 -6 6 C-6.33 5.01 -6.66 4.02 -7 3 C-4.7 1.93 -2.36 0.94 0 0 Z " fill="#C6905C" transform="translate(441,121)"/>
<path d="M0 0 C0.72 0.33 1.43 0.65 2.17 0.99 C23.69 10.43 46.08 9.32 69 6 C68 8 68 8 66.29 8.6 C47.22 12.59 18.89 14.65 1.73 3.53 C1.16 3.03 0.59 2.52 0 2 C0 1.34 0 0.68 0 0 Z " fill="#7C624A" transform="translate(498,469)"/>
<path d="M0 0 C0 0.33 0 0.66 0 1 C-1.28 0.86 -2.56 0.71 -3.88 0.56 C-8.22 0.07 -12.58 -0.34 -16.93 -0.72 C-19 -1 -19 -1 -21 -2 C-23.73 -2.21 -26.45 -2.38 -29.19 -2.5 C-34.52 -2.75 -39.72 -3.16 -45 -4 C-45.33 -3.34 -45.66 -2.68 -46 -2 C-48.65 -1.71 -51.22 -1.53 -53.88 -1.44 C-59.52 -1.26 -59.52 -1.26 -65 0 C-66.56 0.07 -68.13 0.09 -69.69 0.06 C-70.9 0.05 -70.9 0.05 -72.14 0.04 C-73.06 0.02 -73.06 0.02 -74 0 C-71.47 -2.53 -70.16 -2.44 -66.64 -2.85 C-65.55 -2.98 -64.47 -3.11 -63.34 -3.24 C-61.6 -3.43 -61.6 -3.43 -59.81 -3.62 C-58.03 -3.82 -58.03 -3.82 -56.21 -4.02 C-37.74 -5.95 -17.78 -6.12 0 0 Z " fill="#D9CDB0" transform="translate(513,44)"/>
<path d="M0 0 C0.99 0.33 1.98 0.66 3 1 C3.69 3.06 3.69 3.06 4 5 C2 3.62 2 3.62 0 2 C0 1.34 0 0.68 0 0 Z M3 5 C3.96 7.88 4.08 9.59 4 12.56 C3.87 15.91 3.87 15.91 5 19 C4.66 21.38 4.66 21.38 4.06 24.12 C3.87 25.04 3.67 25.95 3.47 26.88 C3.32 27.58 3.16 28.28 3 29 C2.34 28.67 1.68 28.34 1 28 C0.73 25.96 0.73 25.96 0.62 23.38 C0.35 19.7 -0.15 17.24 -2.12 14.12 C-4 11 -4 11 -4 8.69 C-2.36 5.91 -0.17 5 3 5 Z " fill="#D97F39" transform="translate(615,313)"/>
<path d="M0 0 C0.33 0.66 0.66 1.32 1 2 C0.36 3.34 -0.32 4.68 -1 6 C-1.41 7.63 -1.76 9.28 -2.06 10.94 C-2.22 11.77 -2.37 12.61 -2.54 13.46 C-2.69 14.3 -2.84 15.14 -3 16 C-3.16 16.77 -3.32 17.54 -3.49 18.33 C-4.15 21.81 -4.61 25.3 -5.06 28.81 C-5.15 29.51 -5.24 30.2 -5.34 30.91 C-5.56 32.61 -5.78 34.3 -6 36 C-5.34 36.33 -4.68 36.66 -4 37 C-4.88 41.75 -4.88 41.75 -6 44 C-6.04 45.67 -6.04 47.33 -6 49 C-6.99 49.5 -6.99 49.5 -8 50 C-8.3 39.66 -8.23 29.56 -6.69 19.31 C-6.57 18.51 -6.45 17.71 -6.33 16.89 C-5.45 11.48 -4.28 6.01 -2 1 C-1.34 0.67 -0.68 0.34 0 0 Z " fill="#B9946A" transform="translate(348,135)"/>
<path d="M0 0 C6.94 -0.82 6.94 -0.82 9.64 1.28 C13.2 5.8 13.49 9.37 13 15 C12.24 14.34 11.47 13.68 10.69 13 C8.16 10.7 8.16 10.7 5 11 C2.89 8.11 2 6.62 2 3 C1.01 2.67 0.02 2.34 -1 2 C-0.67 1.34 -0.34 0.68 0 0 Z " fill="#6A4732" transform="translate(526,128)"/>
<path d="M0 0 C0.66 0 1.32 0 2 0 C2.33 0.99 2.66 1.98 3 3 C3.66 3.66 4.32 4.32 5 5 C4.53 5.35 4.05 5.7 3.56 6.06 C1.31 8.86 1.37 11.47 1 15 C0.68 16.67 0.35 18.34 0 20 C-2.97 18.88 -5.33 17.78 -8 16 C-7.56 11.44 -7.15 8.42 -4 5 C-3.67 6.32 -3.34 7.64 -3 9 C-2.67 8.01 -2.34 7.02 -2 6 C-1.34 6 -0.68 6 0 6 C-0.28 4.79 -0.28 4.79 -0.56 3.56 C-0.71 2.72 -0.85 1.87 -1 1 C-0.67 0.67 -0.34 0.34 0 0 Z " fill="#B8723C" transform="translate(349,236)"/>
<path d="M0 0 C0.33 0 0.66 0 1 0 C3.45 9.89 4.52 19.74 5.44 29.88 C6.6 42.43 8.02 54.52 12.69 66.32 C13.34 68.14 13.34 68.14 14 70 C13.5 70.99 13.5 70.99 13 72 C7.2 63.09 4.68 53.21 4.18 42.66 C4.07 40.04 4.07 40.04 3.48 37.72 C3.05 35.28 2.98 33.25 3.03 30.79 C3.09 25.86 2.37 21.22 1.5 16.38 C0.52 10.83 -0.18 5.64 0 0 Z " fill="#DED3B8" transform="translate(602,136)"/>
<path d="M0 0 C0.33 0 0.66 0 1 0 C1.06 0.6 1.11 1.2 1.17 1.82 C1.42 4.57 1.68 7.31 1.94 10.06 C2.02 11.01 2.11 11.95 2.2 12.92 C2.68 17.97 3.23 22.98 4 28 C4.99 28.33 5.98 28.66 7 29 C8.16 32.47 8.07 35.36 8 39 C6.68 39.66 5.36 40.32 4 41 C0.47 32.6 0.45 24.39 0.31 15.44 C0.28 13.94 0.24 12.44 0.21 10.94 C0.12 7.29 0.06 3.65 0 0 Z " fill="#BB571B" transform="translate(606,280)"/>
<path d="M0 0 C-0.74 0.58 -1.49 1.16 -2.25 1.75 C-4.98 3.89 -4.98 3.89 -7.06 6.19 C-9 8 -9 8 -11.12 8.5 C-11.74 8.66 -12.36 8.83 -13 9 C-13.7 10.32 -14.37 11.65 -15 13 C-16.33 14.01 -17.66 15.01 -19 16 C-19.33 16.99 -19.66 17.98 -20 19 C-23.44 22 -23.44 22 -26 22 C-25.42 18.14 -23.64 16.11 -21.06 13.25 C-20.35 12.45 -19.64 11.65 -18.91 10.83 C-17 9 -17 9 -15 9 C-14.67 8.01 -14.34 7.02 -14 6 C-12.29 4.43 -12.29 4.43 -10.19 2.88 C-9.5 2.36 -8.81 1.84 -8.11 1.3 C-5.19 -0.5 -3.18 -1.59 0 0 Z " fill="#C2A884" transform="translate(398,64)"/>
<path d="M0 0 C5.51 1.79 5.51 1.79 7.79 2.77 C13.45 5.14 18.9 5.67 25 6 C22.55 8.45 21.57 8.32 18.19 8.56 C15.35 8.77 13.08 8.97 10.38 9.88 C6.82 10.06 4.63 8.36 1.67 6.52 C-0.3 4.73 -0.72 3.62 -1 1 C-0.67 0.67 -0.34 0.34 0 0 Z " fill="#411F10" transform="translate(466,159)"/>
<path d="M0 0 C1.24 0.08 2.48 0.17 3.75 0.25 C4.45 0.3 5.14 0.34 5.86 0.39 C8 1 8 1 9.73 2.91 C12.97 5.89 16.27 6.34 20.5 7.19 C21.26 7.35 22.02 7.52 22.8 7.69 C24.22 7.99 25.63 8.29 27.05 8.58 C28.01 8.79 28.01 8.79 29 9 C29.72 9.14 30.44 9.28 31.19 9.43 C31.78 9.62 32.38 9.81 33 10 C33.5 10.99 33.5 10.99 34 12 C24.1 11.68 13.95 10.61 5.31 5.37 C3.02 3.75 3.02 3.75 0 4 C0 2.68 0 1.36 0 0 Z " fill="#AF5C29" transform="translate(496,466)"/>
<path d="M0 0 C0.33 0 0.66 0 1 0 C1.33 3.3 1.66 6.6 2 10 C2.66 7.03 3.32 4.06 4 1 C4.66 2.32 5.32 3.64 6 5 C6.66 5 7.32 5 8 5 C8.69 6.75 8.69 6.75 9 9 C8.02 10.35 7.02 11.68 6 13 C6.33 13.99 6.66 14.98 7 16 C7.66 16.33 8.32 16.66 9 17 C9 21.29 9 25.58 9 30 C6.65 25.29 6.83 23.13 7 18 C6.22 17.77 5.43 17.55 4.62 17.31 C2 16 2 16 0.84 13.78 C-0.07 10.76 -0.2 8.34 -0.12 5.19 C-0.11 4.21 -0.09 3.24 -0.07 2.23 C-0.05 1.49 -0.02 0.76 0 0 Z " fill="#D8A673" transform="translate(615,331)"/>
<path d="M0 0 C0.66 0 1.32 0 2 0 C2 0.66 2 1.32 2 2 C2.66 2 3.32 2 4 2 C3.99 2.77 3.98 3.54 3.96 4.34 C3.96 5.34 3.95 6.34 3.94 7.38 C3.93 8.37 3.91 9.37 3.9 10.4 C3.82 12.98 3.82 12.98 5 15 C5.66 14.67 6.32 14.34 7 14 C6.48 16.76 5.89 19.33 5 22 C5.28 24.34 5.61 26.68 6 29 C4 27 4 27 2 24 C1.67 24 1.34 24 1 24 C0.1 15.98 -0.12 8.07 0 0 Z " fill="#DA7F35" transform="translate(604,259)"/>
<path d="M0 0 C0.5 0.99 0.5 0.99 1 2 C-3.43 7.74 -9.9 10.82 -17 12 C-24.01 12.31 -31.02 11.69 -38 11 C-37.67 10.01 -37.34 9.02 -37 8 C-36.32 8.01 -35.65 8.02 -34.95 8.04 C-34.06 8.04 -33.17 8.05 -32.25 8.06 C-31.37 8.07 -30.49 8.09 -29.58 8.1 C-27.21 8.01 -25.28 7.59 -23 7 C-20.38 7.37 -18.36 7.82 -16 9 C-9.69 7.25 -4.72 4.47 0 0 Z " fill="#CC935C" transform="translate(450,468)"/>
<path d="M0 0 C-1.29 2.78 -2.74 5.01 -4.69 7.38 C-9.06 13.05 -11.94 19.55 -15 26 C-15.66 26 -16.32 26 -17 26 C-17.57 21.11 -15.75 18.92 -13 15 C-12.29 13.27 -12.29 13.27 -11.56 11.5 C-9.49 6.85 -5.77 0 0 0 Z " fill="#BA9C78" transform="translate(372,87)"/>
<path d="M0 0 C1.32 0 2.64 0 4 0 C4.14 0.95 4.29 1.9 4.44 2.88 C4.83 5.89 4.83 5.89 6 8 C5 11.53 3.74 14.77 2 18 C1.34 17.67 0.68 17.34 0 17 C-0.33 17.66 -0.66 18.32 -1 19 C-1.66 19 -2.32 19 -3 19 C-3.97 16.43 -4.17 15.38 -3.04 12.82 C-2.34 11.7 -2.34 11.7 -1.62 10.56 C0.38 7.35 1.43 4.75 2 1 C1.34 0.67 0.68 0.34 0 0 Z " fill="#DF9554" transform="translate(636,339)"/>
<path d="M0 0 C5.64 3.56 7.99 8.84 11 14.56 C11.76 15.97 11.76 15.97 12.54 17.41 C22.82 36.61 22.82 36.61 22 44 C19.68 39.64 17.99 35 16.21 30.4 C15.01 27.35 13.83 24.74 12 22 C12 21.01 12 20.02 12 19 C11.34 19 10.68 19 10 19 C9.7 18.44 9.39 17.89 9.08 17.31 C6.52 12.64 3.85 8.09 0.92 3.63 C0 2 0 2 0 0 Z " fill="#DDD4BC" transform="translate(578,86)"/>
<path d="M0 0 C2.97 0.5 2.97 0.5 6 1 C6.33 3.31 6.66 5.62 7 8 C7.66 8 8.32 8 9 8 C9.33 8.66 9.66 9.32 10 10 C10.99 10.33 11.98 10.66 13 11 C13.69 13.06 13.69 13.06 14 15 C13.01 15.5 13.01 15.5 12 16 C12 15.34 12 14.68 12 14 C11.1 14.34 11.1 14.34 10.19 14.69 C8 15 8 15 6.31 13.81 C5 12 5 12 4.5 9.94 C4.13 7.6 4.13 7.6 1 6 C0.31 2.88 0.31 2.88 0 0 Z " fill="#E4B27D" transform="translate(353,254)"/>
<path d="M0 0 C1.81 4.09 2.21 7.56 2 12 C1.01 11.67 0.02 11.34 -1 11 C-2.69 7.44 -2.69 7.44 -4 4 C-4.99 4.33 -5.98 4.66 -7 5 C-7.99 5 -8.98 5 -10 5 C-12 5.31 -14 5.65 -16 6 C-13.17 1.76 -9.48 0.83 -4.75 -0.75 C-3 -1 -3 -1 0 0 Z " fill="#CE9761" transform="translate(354,255)"/>
<path d="M0 0 C0.33 0 0.66 0 1 0 C1 1.65 1 3.3 1 5 C1.66 5 2.32 5 3 5 C4.36 7.41 5.14 9.2 4.65 11.97 C4.27 13.34 3.85 14.69 3.41 16.04 C2.93 18.34 3.29 19.79 4 22 C3.34 22.33 2.68 22.66 2 23 C-0.99 18.01 -1.41 14.32 -1.25 8.69 C-1.24 7.96 -1.24 7.23 -1.23 6.48 C-1.15 1.15 -1.15 1.15 0 0 Z " fill="#E08841" transform="translate(619,313)"/>
<path d="M0 0 C1.32 0.33 2.64 0.66 4 1 C4.03 2.48 4.05 3.96 4.06 5.44 C4.07 6.26 4.09 7.08 4.1 7.93 C4.02 10.4 3.82 12.74 3.53 15.19 C2.93 20.3 2.67 25.42 2.44 30.56 C2.39 31.48 2.35 32.39 2.31 33.33 C2.2 35.55 2.1 37.78 2 40 C1.67 40 1.34 40 1 40 C1.01 39.23 1.01 38.46 1.02 37.66 C1.04 34.17 1.05 30.68 1.06 27.19 C1.07 25.97 1.08 24.76 1.09 23.51 C1.09 22.34 1.09 21.18 1.1 19.98 C1.1 18.91 1.11 17.83 1.11 16.73 C1.12 13.91 1.12 13.91 0 11 C0.17 9.87 0.33 8.73 0.5 7.56 C0.93 4.47 1.03 2.86 0 0 Z " fill="#C29A73" transform="translate(454,414)"/>
<path d="M0 0 C0.33 0.99 0.66 1.98 1 3 C0.01 4.49 0.01 4.49 -1 6 C-1.63 8.14 -1.63 8.14 -2.06 10.44 C-2.98 14.93 -3.82 18.93 -6 23 C-6.33 23 -6.66 23 -7 23 C-6.41 8.22 -6.41 8.22 -3 2 C-2.01 2 -1.02 2 0 2 C0 1.34 0 0.68 0 0 Z " fill="#BEA380" transform="translate(306,243)"/>
<path d="M0 0 C3 2 3 2 3.71 3.81 C4.04 6.33 3.91 8.54 3.62 11.06 C3.53 11.92 3.44 12.78 3.35 13.66 C3 16 3 16 2 19 C1.5 21.83 1.05 24.67 0.6 27.5 C0 30 0 30 -2 32 C-1.34 21.44 -0.68 10.88 0 0 Z " fill="#B9936D" transform="translate(375,430)"/>
<path d="M0 0 C0.66 0 1.32 0 2 0 C2.79 1.56 3.59 3.12 4.38 4.69 C4.82 5.56 5.26 6.43 5.71 7.32 C8 12.07 9.88 16.85 11 22 C10.05 24.21 10.05 24.21 9 26 C8.77 25.27 8.54 24.55 8.3 23.8 C6.15 17.18 3.73 10.78 0.95 4.4 C0 2 0 2 0 0 Z " fill="#C09C71" transform="translate(361,381)"/>
<path d="M0 0 C0.99 0 1.98 0 3 0 C3 0.66 3 1.32 3 2 C3.99 1.67 4.98 1.34 6 1 C6.14 2.22 6.29 3.43 6.44 4.69 C6.83 7.83 7.32 10.91 8 14 C7.01 14.66 6.02 15.32 5 16 C4.34 13.03 3.68 10.06 3 7 C2.34 7 1.68 7 1 7 C1 6.34 1 5.68 1 5 C0.34 4.67 -0.32 4.34 -1 4 C-0.67 2.68 -0.34 1.36 0 0 Z " fill="#E8A35C" transform="translate(605,254)"/>
<path d="M0 0 C0.99 0 1.98 0 3 0 C3.8 9.38 4.13 18.59 4 28 C3.34 28 2.68 28 2 28 C1.15 22.34 0.94 16.94 1.06 11.22 C1.26 9.03 1.26 9.03 0 8 C-0.14 5.33 -0.04 2.68 0 0 Z " fill="#E7D19F" transform="translate(601,258)"/>
<path d="M0 0 C0.25 0.95 0.5 1.9 0.75 2.88 C1.69 6.09 1.69 6.09 4.12 7.38 C4.74 7.58 5.36 7.79 6 8 C6 8.33 6 8.66 6 9 C1.71 9.66 -2.58 10.32 -7 11 C-3.21 0 -3.21 0 0 0 Z " fill="#924218" transform="translate(355,244)"/>
<path d="M0 0 C0.99 0 1.98 0 3 0 C3.62 5.08 1.62 7.83 -1 12 C-1.33 11.34 -1.66 10.68 -2 10 C-1.67 9.01 -1.34 8.02 -1 7 C-1.74 7.66 -2.49 8.32 -3.25 9 C-6 11 -6 11 -10 11 C-10 13.64 -10 16.28 -10 19 C-10.33 19 -10.66 19 -11 19 C-11 16.03 -11 13.06 -11 10 C-10.11 9.65 -9.23 9.3 -8.31 8.94 C-4.67 6.81 -3.3 4.95 -1.18 1.43 C-0.79 0.96 -0.4 0.48 0 0 Z " fill="#D67C38" transform="translate(635,340)"/>
<path d="M0 0 C2.06 0.44 2.06 0.44 4 1 C4.66 3.31 5.32 5.62 6 8 C5.34 8.66 4.68 9.32 4 10 C3.01 10 2.02 10 1 10 C1 9.34 1 8.68 1 8 C-0.32 7.34 -1.64 6.68 -3 6 C-1.12 1.12 -1.12 1.12 0 0 Z " fill="#DD9457" transform="translate(623,340)"/>
<path d="M0 0 C3.73 3.73 3.05 9.95 3.06 15 C3.05 16.33 3.03 17.67 3 19 C3.66 19 4.32 19 5 19 C5 21.64 5 24.28 5 27 C-1.24 19.46 -0.26 9.29 0 0 Z " fill="#C29D71" transform="translate(340,317)"/>
<path d="M0 0 C2 3 2 3 2 5 C2.62 5.58 3.24 6.15 3.88 6.75 C6.4 9.43 7.08 11.45 8 15 C8.29 15.97 8.58 16.94 8.88 17.94 C9.05 22.32 7.39 24.38 5 28 C4 26 4 26 4.44 24.38 C5.6 19.48 5.54 15.39 3.75 10.75 C2.06 8.1 0.34 6.09 -2 4 C-1.34 2.68 -0.68 1.36 0 0 Z " fill="#C57A3C" transform="translate(381,276)"/>
<path d="M0 0 C2.59 0.98 3.97 1.97 5.81 4.06 C7.49 8.22 6.78 11.67 6 16 C1.98 11.43 1.06 5.85 0 0 Z " fill="#3D2513" transform="translate(442,128)"/>
<path d="M0 0 C6.27 2.12 10.29 6.51 15 11 C15.8 11.76 16.6 12.52 17.43 13.3 C21.53 17.29 21.53 17.29 23 19 C23 19.66 23 20.32 23 21 C19.47 19.69 17.78 17.61 15.48 14.71 C11.69 10.33 6.97 6.79 2.5 3.12 C1.67 2.42 0.85 1.72 0 1 C0 0.67 0 0.34 0 0 Z " fill="#DED5BA" transform="translate(555,65)"/>
<path d="M0 0 C1.98 -0.03 3.96 -0.05 5.94 -0.06 C7.04 -0.07 8.14 -0.09 9.28 -0.1 C12 0 12 0 13 1 C15.86 1.24 18.7 1.42 21.56 1.56 C22.37 1.61 23.18 1.65 24.01 1.69 C26 1.8 28 1.9 30 2 C26.8 4.13 26.2 4.23 22.58 4.05 C21.29 3.98 21.29 3.98 19.97 3.92 C18.62 3.83 18.62 3.83 17.25 3.75 C16.37 3.71 15.49 3.67 14.58 3.63 C9.42 3.35 4.9 2.63 0 1 C0 0.67 0 0.34 0 0 Z " fill="#AB6E3F" transform="translate(399,477)"/>
<path d="M0 0 C0.66 0 1.32 0 2 0 C2.66 1.65 3.32 3.3 4 5 C3 6 3 6 1.23 6.11 C0.49 6.11 -0.26 6.1 -1.04 6.1 C-1.84 6.09 -2.65 6.09 -3.49 6.09 C-4.34 6.08 -5.19 6.07 -6.06 6.06 C-6.92 6.06 -7.77 6.05 -8.65 6.05 C-10.77 6.04 -12.88 6.02 -15 6 C-12.1 3.1 -9.37 3.62 -5.41 3.44 C-2.6 2.93 -1.86 2.08 0 0 Z " fill="#DB975A" transform="translate(546,472)"/>
<path d="M0 0 C2.06 0.44 2.06 0.44 4 1 C5.37 4.82 4.68 8.07 4 12 C3.34 12 2.68 12 2 12 C-2.05 5.62 -2.05 5.62 -1.81 2.62 C-1 1 -1 1 0 0 Z " fill="#D4762E" transform="translate(613,319)"/>
<path d="M0 0 C-0.25 2.38 -0.25 2.38 -1 5 C-3.56 6.79 -4.83 7 -8 7 C-8 6.01 -8 5.02 -8 4 C-9.65 4.33 -11.3 4.66 -13 5 C-11.73 2.45 -10.82 2.34 -8.19 1.38 C-7.5 1.11 -6.81 0.85 -6.11 0.59 C-4 0 -4 0 0 0 Z " fill="#492515" transform="translate(505,160)"/>
<path d="M0 0 C0.72 0.33 1.43 0.65 2.17 0.99 C12.14 5.36 22.16 7.94 33 9 C33 9.33 33 9.66 33 10 C25.8 10.71 19.46 9.6 12.56 7.69 C11.78 7.47 11 7.26 10.2 7.04 C6.32 5.91 2.94 4.92 0 2 C0 1.34 0 0.68 0 0 Z " fill="#3D1B0E" transform="translate(498,469)"/>
<path d="M0 0 C3.96 3.71 6.96 7.56 9.88 12.12 C10.29 12.75 10.71 13.37 11.13 14 C12.17 15.62 13.1 17.31 14 19 C13.67 19.99 13.34 20.98 13 22 C12.66 21.51 12.32 21.01 11.98 20.5 C11.53 19.86 11.08 19.22 10.62 18.56 C9.96 17.61 9.96 17.61 9.29 16.63 C8.08 14.86 8.08 14.86 6 14 C5.86 13.22 5.71 12.43 5.56 11.62 C5.25 8.99 5.25 8.99 3.56 7.56 C1.36 5.36 0.85 2.95 0 0 Z " fill="#E0D4B9" transform="translate(616,208)"/>
<path d="M0 0 C0.66 0.33 1.32 0.66 2 1 C0.99 8.25 -1.08 13.81 -5 20 C-5.66 19.67 -6.32 19.34 -7 19 C-6.67 18.01 -6.34 17.02 -6 16 C-5.34 16 -4.68 16 -4 16 C-3.9 15.03 -3.79 14.06 -3.69 13.06 C-3.05 8.51 -1.55 4.31 0 0 Z " fill="#E0C39E" transform="translate(599,350)"/>
<path d="M0 0 C2 3 2 3 2 5 C2.99 5 3.98 5 5 5 C5 5.66 5 6.32 5 7 C4.34 7 3.68 7 3 7 C3.33 12.94 3.66 18.88 4 25 C3.67 25 3.34 25 3 25 C1.17 19.47 0.6 14.37 0.38 8.56 C0.34 7.74 0.3 6.91 0.26 6.06 C0.16 4.04 0.08 2.02 0 0 Z " fill="#D36922" transform="translate(607,283)"/>
<path d="M0 0 C3.78 1.09 6.47 1.91 9 5 C8.01 6.49 8.01 6.49 7 8 C4.28 7.63 2.39 7.27 0.12 5.69 C-1 4 -1 4 -0.69 1.81 C-0.46 1.21 -0.23 0.62 0 0 Z " fill="#3E1C0E" transform="translate(466,159)"/>
<path d="M0 0 C0.66 0.99 1.32 1.98 2 3 C-4.09 6.5 -9 7.71 -16 8 C-15.34 6.68 -14.68 5.36 -14 4 C-12.99 4.08 -11.98 4.17 -10.94 4.25 C-6.1 3.94 -4.01 2.62 0 0 Z " fill="#DEA067" transform="translate(444,470)"/>
<path d="M0 0 C3.16 2.91 5.25 5.8 7.31 9.56 C7.84 10.51 8.38 11.46 8.93 12.44 C10 15 10 15 9 18 C4.12 12.11 1.63 7.41 0 0 Z " fill="#C29B6E" transform="translate(350,361)"/>
<path d="M0 0 C5.72 0.52 10.41 1.65 15.69 3.88 C16.32 4.13 16.96 4.39 17.62 4.65 C21.28 6.16 24.66 7.87 28 10 C27.01 10.5 27.01 10.5 26 11 C23.75 10.11 23.75 10.11 21 8.75 C16.45 6.6 12.01 4.98 7.17 3.62 C4.71 2.92 2.35 2.02 0 1 C0 0.67 0 0.34 0 0 Z " fill="#DDD0B6" transform="translate(513,45)"/>
<path d="M0 0 C0.99 0.66 1.98 1.32 3 2 C2.07 2.43 2.07 2.43 1.12 2.88 C-1.13 3.94 -1.13 3.94 -3 6 C-3.33 5.01 -3.66 4.02 -4 3 C-17.86 2.5 -17.86 2.5 -32 2 C-32 1.67 -32 1.34 -32 1 C-30.6 1.01 -30.6 1.01 -29.17 1.02 C-25.72 1.03 -22.26 1.05 -18.81 1.05 C-17.31 1.06 -15.82 1.07 -14.32 1.08 C-12.17 1.09 -10.03 1.09 -7.88 1.1 C-6.59 1.1 -5.29 1.11 -3.96 1.11 C-1.11 1.34 -1.11 1.34 0 0 Z " fill="#C67639" transform="translate(491,412)"/>
<path d="M0 0 C0.33 0.66 0.66 1.32 1 2 C2.32 1.67 3.64 1.34 5 1 C6.12 2.62 6.12 2.62 7 5 C6.12 8.25 6.12 8.25 5 11 C3.44 9.75 3.44 9.75 2 8 C2.31 5.81 2.31 5.81 3 4 C1.35 4.33 -0.3 4.66 -2 5 C-1.12 1.12 -1.12 1.12 0 0 Z " fill="#E6A669" transform="translate(637,335)"/>
<path d="M0 0 C0.66 0.99 1.32 1.98 2 3 C1.51 3.63 1.01 4.25 0.5 4.9 C-0.14 5.72 -0.78 6.53 -1.44 7.38 C-2.08 8.19 -2.71 9 -3.37 9.84 C-5.02 11.89 -5.02 11.89 -6 14 C-6.99 13.67 -7.98 13.34 -9 13 C-6.75 7.87 -3.74 4.09 0 0 Z " fill="#B39168" transform="translate(329,207)"/>
<path d="M0 0 C0.66 0 1.32 0 2 0 C2.48 6.69 2.4 10.78 -2 16 C-2.66 15.01 -3.32 14.02 -4 13 C-3.54 12.26 -3.54 12.26 -3.06 11.5 C-2.05 9.11 -1.72 7.36 -1.44 4.81 C-1 1 -1 1 0 0 Z " fill="#E7BE8C" transform="translate(542,135)"/>
<path d="M0 0 C0.33 0.66 0.66 1.32 1 2 C-3.27 6.96 -8.48 10.48 -15.14 11.25 C-17.06 11.25 -17.06 11.25 -20 11 C-17.1 9.49 -14.19 8.31 -11.12 7.19 C-6.59 5.41 -3.52 3.33 0 0 Z " fill="#966D4C" transform="translate(450,468)"/>
<path d="M0 0 C0.99 0.33 1.98 0.66 3 1 C1.68 1.99 0.36 2.98 -1 4 C-0.67 2.68 -0.34 1.36 0 0 Z M-3 4 C-2.34 4 -1.68 4 -1 4 C0.46 8.52 -0.73 11.52 -2 16 C-2.99 15.67 -3.98 15.34 -5 15 C-4.34 11.37 -3.68 7.74 -3 4 Z " fill="#AA5E2A" transform="translate(351,240)"/>
<path d="M0 0 C-1.55 1.18 -3.12 2.34 -4.69 3.5 C-5.99 4.47 -5.99 4.47 -7.32 5.47 C-10.21 7.12 -11.74 7.33 -15 7 C-11.42 3.15 -5.59 -2.79 0 0 Z " fill="#C8AC89" transform="translate(409,57)"/>
<path d="M0 0 C0.99 0.33 1.98 0.66 3 1 C1.47 2.2 -0.06 3.41 -1.59 4.61 C-3.27 6.06 -3.27 6.06 -4 9 C-7.44 12 -7.44 12 -10 12 C-9.49 7.92 -7.5 6.34 -4.44 3.75 C-3.61 3.04 -2.78 2.34 -1.93 1.61 C-1.3 1.08 -0.66 0.55 0 0 Z " fill="#B48B60" transform="translate(382,74)"/>
<path d="M0 0 C1.03 0.01 1.03 0.01 2.09 0.01 C3.77 0.03 5.45 0.04 7.12 0.06 C7.12 0.39 7.12 0.72 7.12 1.06 C6.37 1.12 5.61 1.18 4.82 1.25 C3.83 1.33 2.84 1.41 1.81 1.5 C0.83 1.58 -0.16 1.66 -1.18 1.75 C-3.97 1.98 -3.97 1.98 -6.88 3.06 C-8.44 3.13 -10 3.15 -11.56 3.12 C-12.77 3.11 -12.77 3.11 -14.01 3.1 C-14.93 3.08 -14.93 3.08 -15.88 3.06 C-11.8 -1.01 -5.45 -0.07 0 0 Z " fill="#D8C2A1" transform="translate(454.875,40.9375)"/>
<path d="M0 0 C1.19 0.25 1.19 0.25 2.41 0.5 C6.77 1.11 10.99 1.11 15.38 1.06 C16.62 1.06 16.62 1.06 17.89 1.05 C19.93 1.04 21.96 1.02 24 1 C24 1.66 24 2.32 24 3 C17.4 3.33 10.8 3.66 4 4 C4 3.34 4 2.68 4 2 C3.01 2.33 2.02 2.66 1 3 C0.67 2.01 0.34 1.02 0 0 Z " fill="#EAC590" transform="translate(472,168)"/>
<path d="M0 0 C0.33 0.66 0.66 1.32 1 2 C0.34 3.34 -0.33 4.67 -1 6 C-1.59 8.24 -2.13 10.49 -2.62 12.75 C-2.89 13.92 -3.15 15.09 -3.41 16.3 C-3.61 17.19 -3.8 18.08 -4 19 C-4.33 19 -4.66 19 -5 19 C-5.31 12.5 -4.89 6.93 -2 1 C-1.34 0.67 -0.68 0.34 0 0 Z " fill="#B68C60" transform="translate(348,135)"/>
<path d="M0 0 C2.24 3.37 2.05 5 1.94 8.93 C2.03 11.85 2.92 14.31 4 17 C3.34 17.33 2.68 17.66 2 18 C-0.78 12.55 -1.65 8.12 -1 2 C-0.67 1.34 -0.34 0.68 0 0 Z " fill="#C38954" transform="translate(427,132)"/>
<path d="M0 0 C1.88 0.31 1.88 0.31 4 1 C6 4 6 4 6 8 C4.35 7.67 2.7 7.34 1 7 C0.67 4.69 0.34 2.38 0 0 Z " fill="#8A694F" transform="translate(532,129)"/>
<path d="M0 0 C-2 3 -2 3 -5 4 C-5.99 4 -6.98 4 -8 4 C-10 4.31 -12 4.65 -14 5 C-10.36 -0.46 -6.24 -1.63 0 0 Z " fill="#C38F5B" transform="translate(352,256)"/>
<path d="M0 0 C2 1 2 1 3 3 C2.58 5.02 1.98 6.95 1.38 8.93 C0.95 11.27 1.28 12.76 2 15 C1.01 15.5 1.01 15.5 0 16 C-2.3 11.4 -1.25 4.83 0 0 Z " fill="#E2914C" transform="translate(621,320)"/>
<path d="M0 0 C0.66 0.33 1.32 0.66 2 1 C2 1.66 2 2.32 2 3 C2.99 2.67 3.98 2.34 5 2 C5 2.66 5 3.32 5 4 C3.38 4.36 1.75 4.71 0.12 5.06 C-0.78 5.26 -1.68 5.46 -2.62 5.66 C-5 6 -5 6 -7 5 C-7 4.34 -7 3.68 -7 3 C-4.7 1.93 -2.36 0.94 0 0 Z " fill="#CB9966" transform="translate(441,121)"/>
<path d="M0 0 C1.96 0.09 3.92 0.2 5.88 0.31 C7.51 0.4 7.51 0.4 9.18 0.49 C10.11 0.66 11.04 0.83 12 1 C12.66 1.99 13.32 2.98 14 4 C9.71 3.67 5.42 3.34 1 3 C0.67 2.01 0.34 1.02 0 0 Z " fill="#BC6D39" transform="translate(516,474)"/>
<path d="M0 0 C0 0.99 0 1.98 0 3 C-2.08 4.57 -2.08 4.57 -4.81 6.12 C-5.71 6.64 -6.6 7.16 -7.52 7.7 C-10 9 -10 9 -13 10 C-13 9.01 -13 8.02 -13 7 C-12.43 6.82 -11.87 6.64 -11.29 6.45 C-10.55 6.2 -9.82 5.95 -9.06 5.69 C-7.97 5.32 -7.97 5.32 -6.85 4.95 C-4.64 4.09 -4.64 4.09 -4 1 C-1.94 0.31 -1.94 0.31 0 0 Z " fill="#C88045" transform="translate(381,308)"/>
<path d="M0 0 C1.32 0 2.64 0 4 0 C5.17 3.98 6.26 7.92 7 12 C4.5 9.75 4.5 9.75 2 7 C2 5.68 2 4.36 2 3 C1.01 2.67 0.02 2.34 -1 2 C-0.67 1.34 -0.34 0.68 0 0 Z " fill="#573722" transform="translate(526,128)"/>
<path d="M0 0 C2.06 3.09 2.78 5.37 3.69 8.94 C3.96 9.98 4.23 11.02 4.51 12.09 C4.98 14.87 4.94 16.38 4 19 C3.34 19 2.68 19 2 19 C2.03 18.13 2.03 18.13 2.07 17.24 C2.18 12.34 1.73 8.65 0 4 C0 2.68 0 1.36 0 0 Z " fill="#E7D1AC" transform="translate(647,267)"/>
<path d="M0 0 C1.01 3.04 1.01 4.4 0.62 7.5 C0.53 8.27 0.44 9.05 0.35 9.84 C0 12 0 12 -1 15 C-1.66 15 -2.32 15 -3 15 C-3.33 15.66 -3.66 16.32 -4 17 C-3.58 10.8 -2.4 5.73 0 0 Z " fill="#C9BB9F" transform="translate(349,121)"/>
<path d="M0 0 C1.65 0 3.3 0 5 0 C5 0.66 5 1.32 5 2 C6.32 2.33 7.64 2.66 9 3 C9 4.65 9 6.3 9 8 C4.73 6.42 2.73 3.49 0 0 Z " fill="#E4BE8E" transform="translate(533,126)"/>
<path d="M0 0 C2.41 3.62 2.06 4.44 1.25 8.56 C0.98 10.02 0.98 10.02 0.7 11.5 C0 14 0 14 -2 16 C-1.86 13.71 -1.71 11.42 -1.56 9.12 C-1.48 7.85 -1.4 6.57 -1.32 5.26 C-1 2 -1 2 0 0 Z " fill="#AB8055" transform="translate(375,446)"/>
<path d="M0 0 C3.03 2.84 4.8 4.68 5.17 8.97 C5.19 10.98 5.1 12.99 5 15 C4.34 15.66 3.68 16.32 3 17 C3.06 15.99 3.12 14.98 3.19 13.94 C2.97 9.43 1.87 7.05 0 3 C0 2.01 0 1.02 0 0 Z " fill="#E8C58F" transform="translate(382,283)"/>
<path d="M0 0 C0.66 0.66 1.32 1.32 2 2 C-0.16 4.32 -2.27 6.38 -5 8 C-8.94 7.38 -8.94 7.38 -12 6 C-12 5.67 -12 5.34 -12 5 C-11.08 4.84 -11.08 4.84 -10.14 4.67 C-9.33 4.51 -8.52 4.35 -7.69 4.19 C-6.89 4.04 -6.09 3.89 -5.26 3.73 C-2.77 2.92 -1.68 1.98 0 0 Z " fill="#CA9966" transform="translate(448,147)"/>
<path d="M0 0 C1.47 2.88 2.82 5.79 4.12 8.75 C4.48 9.55 4.83 10.35 5.2 11.17 C5.46 11.78 5.73 12.38 6 13 C5.01 13.33 4.02 13.66 3 14 C0.57 9.03 -0.35 5.65 0 0 Z " fill="#9B6E45" transform="translate(374,460)"/>
<path d="M0 0 C2 0.65 4 1.32 6 2 C6.93 2.31 7.86 2.62 8.81 2.94 C9.53 3.29 10.26 3.64 11 4 C11.33 4.99 11.66 5.98 12 7 C10.58 6.55 9.17 6.09 7.75 5.62 C6.96 5.37 6.17 5.11 5.36 4.85 C3.13 4.05 1.09 3.1 -1 2 C-0.67 1.34 -0.34 0.68 0 0 Z " fill="#AF5E29" transform="translate(367,272)"/>
<path d="M0 0 C1.32 0.66 2.64 1.32 4 2 C4 2.66 4 3.32 4 4 C4.66 4 5.32 4 6 4 C6 4.66 6 5.32 6 6 C3.36 5.67 0.72 5.34 -2 5 C-2.33 4.01 -2.66 3.02 -3 2 C-2.01 1.34 -1.02 0.68 0 0 Z " fill="#975B30" transform="translate(382,471)"/>
<path d="M0 0 C2 3 2 3 2 5 C3.02 5.93 3.02 5.93 4.06 6.88 C4.7 7.58 5.34 8.28 6 9 C5.75 11.25 5.75 11.25 5 13 C4.4 12.07 3.8 11.14 3.19 10.19 C1.55 7.8 0.13 5.92 -2 4 C-1.34 2.68 -0.68 1.36 0 0 Z " fill="#BC6D33" transform="translate(381,276)"/>
<path d="M0 0 C2.08 3.42 2.08 3.42 1.75 5.81 C1.5 6.53 1.25 7.26 1 8 C0.65 9.24 0.3 10.48 -0.06 11.75 C-0.37 12.82 -0.68 13.89 -1 15 C-1.33 15 -1.66 15 -2 15 C-2.22 9.56 -2.1 5.13 0 0 Z " fill="#E6A669" transform="translate(627,319)"/>
<path d="M0 0 C0.33 0.66 0.66 1.32 1 2 C-2.64 4.43 -4.71 4.16 -9 4 C-9 3.01 -9 2.02 -9 1 C-4.55 0.5 -4.55 0.5 0 0 Z " fill="#EDBE89" transform="translate(364,272)"/>
<path d="M0 0 C0.33 0.99 0.66 1.98 1 3 C0.01 4.49 0.01 4.49 -1 6 C-1.58 7.55 -2.12 9.11 -2.62 10.69 C-3.02 11.9 -3.02 11.9 -3.41 13.14 C-3.61 13.75 -3.8 14.37 -4 15 C-4.33 15 -4.66 15 -5 15 C-4.52 10.29 -4.03 6.33 -2 2 C-1.34 2 -0.68 2 0 2 C0 1.34 0 0.68 0 0 Z " fill="#AB7E52" transform="translate(306,243)"/>
<path d="M0 0 C0.33 0 0.66 0 1 0 C1.75 3.25 1.75 3.25 2 7 C0.06 9.44 0.06 9.44 -2 11 C-3 9 -3 9 -2.44 6.84 C-2.15 6.02 -1.86 5.21 -1.56 4.38 C-1.28 3.56 -0.99 2.74 -0.69 1.9 C-0.46 1.27 -0.24 0.65 0 0 Z " fill="#C5844D" transform="translate(344,241)"/>
<path d="M0 0 C4.38 0.51 6.82 3.18 10 6 C6.83 6 5.74 5.37 3 4 C2.01 4 1.02 4 0 4 C0 2.68 0 1.36 0 0 Z " fill="#924A20" transform="translate(496,466)"/>
<path d="M0 0 C2 3 2 3 2.94 5.06 C3.98 7.32 3.98 7.32 7 9 C6.34 9 5.68 9 5 9 C4.67 10.32 4.34 11.64 4 13 C-0.59 4.74 -0.59 4.74 0 0 Z " fill="#A16236" transform="translate(491,455)"/>
<path d="M0 0 C2.12 3.18 2.25 3.55 1.75 7.06 C1.66 7.75 1.57 8.45 1.48 9.16 C1 11 1 11 -1 13 C-2.07 9.73 -1.89 7.57 -1.06 4.25 C-0.87 3.45 -0.67 2.65 -0.47 1.83 C-0.32 1.22 -0.16 0.62 0 0 Z " fill="#E2BA89" transform="translate(602,337)"/>
<path d="M0 0 C0.99 0.5 0.99 0.5 2 1 C2.12 7.75 2.12 7.75 1 10 C1.66 10.33 2.32 10.66 3 11 C2.34 12.32 1.68 13.64 1 15 C0 14 0 14 -0.1 10.84 C-0.08 8.91 -0.08 8.91 -0.06 6.94 C-0.05 5.65 -0.04 4.36 -0.04 3.03 C-0.02 2.03 -0.01 1.03 0 0 Z " fill="#B58658" transform="translate(299,267)"/>
<path d="M0 0 C0.87 2.43 1.21 3.54 0.12 5.94 C-0.25 6.62 -0.62 7.3 -1 8 C-1.38 9.66 -1.72 11.32 -2 13 C-2.66 13 -3.32 13 -4 13 C-3.5 8.03 -2.45 4.36 0 0 Z " fill="#B2885B" transform="translate(352,118)"/>
<path d="M0 0 C0.99 0.33 1.98 0.66 3 1 C3 1.66 3 2.32 3 3 C2.34 3.66 1.68 4.32 1 5 C1.32 7.6 1.32 7.6 2 10 C-0.06 7.75 -0.06 7.75 -2 5 C-1.81 2.74 -1.6 1.6 0 0 Z " fill="#CA7B3E" transform="translate(613,319)"/>
<path d="M0 0 C3.96 0 7.92 0 12 0 C12 0.33 12 0.66 12 1 C9.03 1 6.06 1 3 1 C3 2.32 3 3.64 3 5 C2.01 5 1.02 5 0 5 C0 3.35 0 1.7 0 0 Z " fill="#E6B077" transform="translate(352,272)"/>
<path d="M0 0 C0.99 0.99 1.98 1.98 3 3 C1.68 5.31 0.36 7.62 -1 10 C-1.33 10 -1.66 10 -2 10 C-2.25 3.38 -2.25 3.38 0 0 Z " fill="#EDC38C" transform="translate(606,246)"/>
<path d="M0 0 C4.29 0.33 8.58 0.66 13 1 C13 1.33 13 1.66 13 2 C8.24 2.95 3.83 3.08 -1 3 C-0.67 2.01 -0.34 1.02 0 0 Z " fill="#CE8A4A" transform="translate(413,476)"/>
<path d="M0 0 C-2.85 2.32 -5.46 3.94 -9 5 C-11.31 4.62 -11.31 4.62 -13 4 C-12.01 4 -11.02 4 -10 4 C-10 3.34 -10 2.68 -10 2 C-6.49 0.4 -3.86 -0.22 0 0 Z " fill="#DDB68A" transform="translate(505,158)"/>
<path d="M0 0 C3 1 3 1 4.19 2.75 C5.11 5.3 5.15 7.31 5 10 C4.01 9.67 3.02 9.34 2 9 C1.86 7.89 1.71 6.77 1.56 5.62 C1.22 2.18 1.22 2.18 0 0 Z " fill="#604733" transform="translate(444,130)"/>
<path d="M0 0 C0.99 0 1.98 0 3 0 C1.12 5.75 1.12 5.75 0 8 C-0.66 8 -1.32 8 -2 8 C-2.2 4.28 -2.15 3.23 0 0 Z " fill="#B69268" transform="translate(357,105)"/>
<path d="M0 0 C0.66 0 1.32 0 2 0 C2.49 1.99 2.98 3.97 3.46 5.96 C3.91 7.66 4.44 9.33 5 11 C4.01 10.67 3.02 10.34 2 10 C0.48 6.4 0 3.95 0 0 Z " fill="#C0905E" transform="translate(346,349)"/>
<path d="M0 0 C2 3 2 3 2 5 C2.99 5 3.98 5 5 5 C5 5.66 5 6.32 5 7 C4.34 7 3.68 7 3 7 C2.67 8.32 2.34 9.64 2 11 C0.58 7.18 -0.24 4.09 0 0 Z " fill="#DC782C" transform="translate(607,283)"/>
<path d="M0 0 C1.12 1.75 1.12 1.75 2 4 C1.12 6.25 1.12 6.25 0 8 C0.66 8 1.32 8 2 8 C1.67 8.99 1.34 9.98 1 11 C0.34 11 -0.32 11 -1 11 C-1.03 9.35 -1.05 7.71 -1.06 6.06 C-1.07 5.15 -1.09 4.23 -1.1 3.29 C-1 1 -1 1 0 0 Z " fill="#B1632C" transform="translate(491,422)"/>
<path d="M0 0 C0.66 0 1.32 0 2 0 C2.33 0.99 2.66 1.98 3 3 C2.04 3.43 2.04 3.43 1.06 3.88 C-1.15 4.83 -1.15 4.83 -2 7 C-2.33 6.01 -2.66 5.02 -3 4 C-1.69 1.81 -1.69 1.81 0 0 Z " fill="#AD855B" transform="translate(314,228)"/>
<path d="M0 0 C2.48 0.99 2.48 0.99 5 2 C4 3.56 4 3.56 2 5 C-0.77 4.97 -3.26 4.49 -6 4 C-6 3.67 -6 3.34 -6 3 C-4.02 3 -2.04 3 0 3 C0 2.01 0 1.02 0 0 Z " fill="#DCA167" transform="translate(557,472)"/>
<path d="M0 0 C0.66 0 1.32 0 2 0 C2.33 0.99 2.66 1.98 3 3 C3.66 3.33 4.32 3.66 5 4 C5 4.66 5 5.32 5 6 C5.66 6.33 6.32 6.66 7 7 C6.01 7.33 5.02 7.66 4 8 C1.1 5.6 0.5 3.69 0 0 Z " fill="#E1A66E" transform="translate(357,261)"/>
<path d="M0 0 C0.66 0 1.32 0 2 0 C2 0.66 2 1.32 2 2 C2.66 2 3.32 2 4 2 C4 4.64 4 7.28 4 10 C0 4 0 4 0 0 Z " fill="#E49347" transform="translate(604,259)"/>
<path d="M0 0 C2.48 0.5 2.48 0.5 5 1 C4.67 2.98 4.34 4.96 4 7 C3.01 6.67 2.02 6.34 1 6 C0.67 4.02 0.34 2.04 0 0 Z " fill="#DAA570" transform="translate(353,254)"/>
<path d="M0 0 C0.66 0 1.32 0 2 0 C2.12 5.75 2.12 5.75 1 8 C0.34 8 -0.32 8 -1 8 C-1.04 5.67 -1.04 3.33 -1 1 C-0.67 0.67 -0.34 0.34 0 0 Z " fill="#B46A34" transform="translate(349,236)"/>
<path d="M0 0 C0 3 0 3 -2.5 5.69 C-3.32 6.45 -4.15 7.21 -5 8 C-4.46 4.2 -2.8 2.53 0 0 Z " fill="#AF8253" transform="translate(335,201)"/>
<path d="M0 0 C1.1 0.1 2.19 0.2 3.32 0.31 C4.16 0.39 5.01 0.48 5.88 0.56 C5.88 0.89 5.88 1.22 5.88 1.56 C3.92 1.78 1.96 1.99 0 2.19 C-1.64 2.36 -1.64 2.36 -3.3 2.54 C-4.7 2.55 -4.7 2.55 -6.12 2.56 C-6.79 1.9 -7.44 1.24 -8.12 0.56 C-5.29 -0.86 -3.13 -0.3 0 0 Z " fill="#512713" transform="translate(483.125,165.4375)"/>
<path d="M0 0 C0.99 0 1.98 0 3 0 C3.19 0.96 3.19 0.96 3.38 1.94 C3.68 2.96 3.68 2.96 4 4 C4.66 4.33 5.32 4.66 6 5 C4.35 4.67 2.7 4.34 1 4 C0.67 2.68 0.34 1.36 0 0 Z " fill="#D8A26E" transform="translate(626,364)"/>
<path d="M0 0 C2.42 2.42 2.61 3.64 3 7 C2.56 9.81 2.56 9.81 2 12 C1.67 12 1.34 12 1 12 C0.67 8.04 0.34 4.08 0 0 Z " fill="#BD8A59" transform="translate(340,317)"/>
<path d="M0 0 C1.32 0.66 2.64 1.32 4 2 C3.01 2.66 2.02 3.32 1 4 C0.34 4.99 -0.32 5.98 -1 7 C-1.62 5.19 -1.62 5.19 -2 3 C-1.34 2.01 -0.68 1.02 0 0 Z " fill="#AA7B4E" transform="translate(309,237)"/>
<path d="M0 0 C0.66 0.99 1.32 1.98 2 3 C0.35 3.66 -1.3 4.32 -3 5 C-3.66 4.34 -4.32 3.68 -5 3 C-3.35 2.01 -1.7 1.02 0 0 Z " fill="#4F2F1E" transform="translate(536,147)"/>
<path d="M0 0 C0.66 0.33 1.32 0.66 2 1 C0.81 2.5 0.81 2.5 -1 4 C-3.69 4.19 -3.69 4.19 -6 4 C-3.95 1.75 -2.99 1 0 0 Z " fill="#CFB895" transform="translate(417,50)"/>
</svg>
